PathFileType	4	(X/Y/Z)	C:/Users/opensim2020/Desktop/walking_exp_matlab/subject03_walking07_straight_02.trc																																																																																																																																								
DataRate	CameraRate	NumFrames	NumMarkers	Units	OrigDataRate	OrigDataStartFrame	OrigNumFrames																																																																																																																																				
100	100	5	46	mm	100	1656	252																																																																																																																																				
Frame#	Time	LFHD			RFHD			LBHD			RBHD			C7			T10			CLAV			STRN			RBAK			LSHO			LUPA			LELB			LFRM			LWRA			LWRB			LFIN			RSHO			RUPA			RELB			RFRM			RWRA			RWRB			RFIN			LASI			RASI			LPSI			RPSI			LTHI			LKNE			LTIB			LANK			LHEE			LTOE			RTHI			RKNE			RTIB			RANK			RHEE			RTOE			*39			*40			*41			*42			*43			*44			*45		
		X1	Y1	Z1	X2	Y2	Z2	X3	Y3	Z3	X4	Y4	Z4	X5	Y5	Z5	X6	Y6	Z6	X7	Y7	Z7	X8	Y8	Z8	X9	Y9	Z9	X10	Y10	Z10	X11	Y11	Z11	X12	Y12	Z12	X13	Y13	Z13	X14	Y14	Z14	X15	Y15	Z15	X16	Y16	Z16	X17	Y17	Z17	X18	Y18	Z18	X19	Y19	Z19	X20	Y20	Z20	X21	Y21	Z21	X22	Y22	Z22	X23	Y23	Z23	X24	Y24	Z24	X25	Y25	Z25	X26	Y26	Z26	X27	Y27	Z27	X28	Y28	Z28	X29	Y29	Z29	X30	Y30	Z30	X31	Y31	Z31	X32	Y32	Z32	X33	Y33	Z33	X34	Y34	Z34	X35	Y35	Z35	X36	Y36	Z36	X37	Y37	Z37	X38	Y38	Z38	X39	Y39	Z39	X40	Y40	Z40	X41	Y41	Z41	X42	Y42	Z42	X43	Y43	Z43	X44	Y44	Z44	X45	Y45	Z45	X46	Y46	Z46
																																																																																																																																											
190	1.89	717.00012	1601.93359	951.96484	708.28778	1612.76514	1084.3501	584.53571	1574.56921	949.35071	580.82257	1584.38257	1079.55103	536.02966	1413.92358	1014.85535	498.68021	1098.5033	1020.12451	654.41888	1334.22473	1019.59125	696.33496	1169.69824	1018.85767	477.35577	1239.92896	1115.28015	613.70538	1368.11499	862.25378	603.28326	1168.90955	793.73419	606.37457	1045.55237	784.91437	628.65918	917.12885	788.73303	642.39349	799.26062	821.26898	622.68097	804.12921	768.96222	633.80334	720.29315	780.65936	606.28156	1363.26184	1177.54968	633.22595	1147.3114	1260.92078	668.93451	1041.43677	1278.7406	717.39221	913.6098	1283.09485	769.48169	828.85834	1248.57471	741.16901	816.41553	1292.88232	782.65753	755.01581	1284.23254	674.50494	935.71436	913.92657	661.24579	938.73578	1151.01624	509.90472	951.96722	952.87732	503.59653	967.99829	1101.44434	705.24799	644.9574	859.21411	771.11859	478.73859	887.31641	705.43628	288.83615	891.22742	664.12457	85.00491	933.87988	621.50055	52.27322	975.91479	803.99829	39.1018	949.58014	590.19305	643.58905	1181.71082	590.63605	463.42532	1144.52002	523.94916	282.39029	1142.01135	472.32678	73.52013	1087.22778	428.63864	44.46033	1033.52112	612.60968	30.84268	1080.14685	NaN	NaN	NaN	641.27936	1676.69617	993.79437	NaN	NaN	NaN	NaN	NaN	NaN	NaN	NaN	NaN	NaN	NaN	NaN	NaN	NaN	NaN
191	1.9	726.08618	1601.03613	951.18402	717.34717	1612.05994	1083.52393	593.77112	1573.30127	948.54572	590.00623	1583.3186	1078.88586	545.50635	1412.90991	1014.27917	508.09753	1097.51648	1019.29425	663.69897	1333.15466	1019.18878	705.65417	1168.68457	1018.94513	486.6759	1238.99597	1114.66345	623.08923	1366.97986	861.64282	611.08264	1167.91089	792.77716	612.83777	1044.44885	783.92834	634.23883	915.91357	787.70551	647.61298	797.97357	820.48419	627.52509	802.89886	768.08759	638.47424	719.03851	779.95416	615.5304	1362.3584	1177.08789	643.79285	1146.85156	1260.94666	680.67377	1041.47888	1278.88208	730.76483	914.25018	1283.21375	783.99915	830.45135	1248.59546	755.86725	817.42218	1292.85681	798.21655	756.62885	1284.08606	684.43054	934.26965	914.22375	669.64502	937.73425	1151.44067	519.35315	951.08704	952.21008	512.39734	967.25787	1100.66479	715.10638	644.12909	858.51288	781.3172	478.0202	887.18347	725.33191	285.56442	891.46777	696.78381	79.65728	934.4209	656.25549	45.12047	976.97113	838.89795	39.46884	949.01801	596.5658	643.09625	1181.70435	595.10461	462.9122	1144.7063	526.51819	282.27829	1142.38049	472.65662	74.14741	1087.1156	428.88599	45.44724	1033.2832	612.80035	30.85897	1080.5155	NaN	NaN	NaN	650.38617	1675.5094	992.92651	NaN	NaN	NaN	NaN	NaN	NaN	NaN	NaN	NaN	NaN	NaN	NaN	NaN	NaN	NaN
192	1.91	735.22125	1600.07068	950.40131	726.44891	1611.22046	1082.72522	602.94501	1571.85815	947.80914	599.16467	1582.04309	1078.13354	554.88983	1411.73767	1013.79382	517.58197	1096.44885	1018.32153	673.11469	1331.97791	1018.74512	715.02533	1167.51416	1018.96313	495.88986	1238.02942	1114.0365	632.59393	1365.69409	861.02454	618.26306	1166.74963	792.11053	619.40857	1043.43311	782.78931	640.05664	914.61426	786.66791	653.20129	796.87195	819.22034	632.52264	801.55261	767.30292	643.36011	717.72028	779.28937	624.92902	1361.2572	1176.48328	654.29993	1146.30261	1260.93933	692.23315	1041.32678	1279.03833	744.08588	914.81696	1283.08459	798.17578	831.70422	1248.31067	770.3421	818.31244	1292.64697	813.51599	758.14172	1283.82495	694.40289	932.56677	914.35107	678.09546	936.68951	1151.46619	529.18811	949.83698	951.42688	521.35931	966.51379	1099.84436	724.39899	642.80542	857.78687	791.28784	477.02988	887.0592	745.02637	282.52792	891.59766	729.54077	74.90731	934.57764	690.65881	39.3037	977.22211	873.49231	39.8441	948.35828	602.97845	642.61633	1181.76624	599.49158	462.46939	1144.87244	528.79688	282.69534	1142.04321	473.09436	74.79381	1086.96143	429.04892	46.53284	1033.0553	612.82568	30.70159	1080.4032	NaN	NaN	NaN	659.18964	1674.44775	991.94159	NaN	NaN	NaN	NaN	NaN	NaN	NaN	NaN	NaN	NaN	NaN	NaN	NaN	NaN	NaN
193	1.92	744.36609	1599.02051	949.63129	735.47632	1610.31067	1081.97217	612.08765	1570.34155	947.23407	608.30591	1580.72546	1077.31421	564.39624	1410.49548	1012.99152	527.08423	1095.18567	1017.09332	682.65741	1330.73499	1018.28461	724.55115	1166.24915	1018.89471	505.1861	1236.88049	1113.21582	642.27515	1364.30652	860.39154	625.99762	1165.47327	791.22125	626.00305	1042.03564	781.86505	646.04004	913.2627	785.65564	658.85376	795.53162	818.28729	637.79852	800.20819	766.55292	648.48431	716.41534	778.65704	634.20447	1360.12964	1175.90344	664.62885	1145.57092	1260.72827	703.7785	1041.14624	1278.78516	757.05627	915.22693	1282.86914	811.91199	832.6062	1247.68579	784.62177	819.06976	1292.32239	828.54333	759.52271	1283.40759	704.32422	930.62744	914.3786	686.46259	935.43945	1151.6925	539.06415	948.47314	950.59222	530.43488	965.70386	1098.95813	733.02112	640.90466	857.0199	801.05872	475.71503	887.23468	764.53314	279.82663	891.61365	761.90039	71.44464	933.94806	725.04126	34.76779	977.09143	907.69135	40.71509	947.30469	609.32104	642.16376	1181.85706	603.88574	462.0361	1145.07605	531.14966	282.94174	1142.11279	473.45926	75.49558	1086.92334	429.28107	47.53495	1032.96436	612.91528	30.63822	1080.4801	NaN	NaN	NaN	667.27448	1672.80786	991.66589	NaN	NaN	NaN	NaN	NaN	NaN	NaN	NaN	NaN	NaN	NaN	NaN	NaN	NaN	NaN
194	1.93	753.55731	1597.84778	948.85114	744.55048	1609.26855	1081.23132	621.50043	1568.82166	946.216	617.45288	1579.24487	1076.51282	574.04987	1409.12549	1012.14246	536.78162	1093.86108	1015.78308	692.17554	1329.34436	1017.77289	734.07898	1164.91516	1018.78375	514.59698	1235.68372	1112.33362	652.1236	1362.88257	859.70697	633.92023	1164.2196	790.27942	632.9585	1040.91516	780.64087	652.22339	911.79144	784.62354	664.83911	794.16553	817.34076	643.34491	798.77502	765.79498	653.84326	714.9516	778.02936	643.48132	1358.84961	1175.27856	674.94366	1144.70422	1260.48767	714.97314	1040.68726	1278.69775	769.82495	915.48694	1282.54907	825.68695	833.64929	1247.27783	798.60492	819.70758	1291.85767	843.25995	760.73639	1282.81592	714.38959	928.49762	914.28619	695.54297	934.41559	1151.65405	549.02954	947.08063	949.68066	539.73315	964.82257	1097.95129	740.96997	638.44104	856.37592	810.1308	473.71228	887.55731	783.56818	277.44009	891.61346	793.63739	68.88271	932.56226	759.07135	31.90321	976.07452	941.42084	42.45301	945.82953	615.68243	641.70111	1181.83533	608.29419	461.61804	1145.34143	533.52924	283.21994	1142.28186	473.7558	76.29412	1087.12524	429.44995	48.62695	1032.91077	612.94519	30.59129	1080.54565	NaN	NaN	NaN	676.28162	1671.43689	990.6521	NaN	NaN	NaN	NaN	NaN	NaN	NaN	NaN	NaN	NaN	NaN	NaN	NaN	NaN	NaN
